# xmcd CD database file
#
# Track frame offsets:
#	150
#	17485
#	35731
#	65283
#	71205
#	80544
#	104552
#	141777
#	150052
#	161510
#	189743
#	235465
#
# Disc length: 3277 seconds
#
# Revision: 0
# Processed by: cddbd v1.5.1PL0 Copyright (c) Steve Scherf et al.
# Submitted via: cdripper 1.0.10
#
DISCID=9d0ccb0c
DTITLE=Kelly Rossum Quintet - Renovation
DYEAR=2004
DGENRE=Jazz
TTITLE0=Cheap Cigars
TTITLE1=Lead Soldiers
TTITLE2=Fly Away
TTITLE3=Bugpowder
TTITLE4=Disposable Assets
TTITLE5=Life on Mars
TTITLE6=Little Wing
TTITLE7=Hennepin Bridge
TTITLE8=Taxi Funeral Waltz
TTITLE9=Glass Wheel
TTITLE10=The Two of Us
TTITLE11=Frances Loop
EXTD=YEAR: 2004
EXTT0=
EXTT1=
EXTT2=
EXTT3=
EXTT4=
EXTT5=
EXTT6=
EXTT7=
EXTT8=
EXTT9=
EXTT10=
EXTT11=
PLAYORDER=
